<svg xmlns="http://www.w3.org/2000/svg" viewBox="0 0 565.33 97.33"><defs><style>.cls-1{fill:#fff;stroke:#fff;stroke-miterlimit:10;stroke-width:0.5px;}</style></defs><title>logoWhite33</title><g id="Layer_1" data-name="Layer 1"><path class="cls-1" d="M16.41,49.11a77.33,77.33,0,0,0,7.37-15q1.06-3.18,2.12-6.17a29.28,29.28,0,0,1,2.46-5.3,11.88,11.88,0,0,1,3.42-3.71,8.62,8.62,0,0,1,5-1.4,12.22,12.22,0,0,1,8.39,2.8q3.18,2.79,5.1,9.44c.2.64.61,1.94,1.26,3.9S52.93,38,53.8,40.72s1.82,5.79,2.84,9.06,2.06,6.59,3.09,9.93q3.75,11.75,8.28,26H61.36c-.89-2.82-1.89-5.65-3-8.47a46.38,46.38,0,0,0-3.76-7.67A20.67,20.67,0,0,0,49.75,64a10.05,10.05,0,0,0-6.31-2.12A12.16,12.16,0,0,0,38.19,63a15.51,15.51,0,0,0-4.53,3.37A37.4,37.4,0,0,0,29.37,72q-2.11,3.33-4.53,7.76a11.9,11.9,0,0,1-5.1,5.06,14.29,14.29,0,0,1-6.46,1.59,11.11,11.11,0,0,1-6.65-2,11.46,11.46,0,0,1-3.18-3.67A10,10,0,0,1,2.3,76.43a13.26,13.26,0,0,1,.62-4.58A18.77,18.77,0,0,1,5,67.42Q11.17,57.78,16.41,49.11ZM16.65,80a10.51,10.51,0,0,0,5-1.3,11.3,11.3,0,0,0,4.28-4.39,38.08,38.08,0,0,1,7.91-10.11,14.4,14.4,0,0,1,9.73-3.66,18.15,18.15,0,0,1,6.26,1,11.72,11.72,0,0,1,4.43,2.65Q51.64,55.86,49.51,49q-1-2.9-1.88-5.73T46,38.08c-.49-1.58-.89-2.91-1.21-4a18.89,18.89,0,0,0-.67-2A31,31,0,0,0,40,23.33a6,6,0,0,0-4.81-2.74,6,6,0,0,0-5.06,2.55A26.94,26.94,0,0,0,26.58,31a72.66,72.66,0,0,1-2.51,7.09q-1.35,3.22-2.94,6.31c-1.06,2-2.2,4.16-3.42,6.31s-2.57,4.48-4,7q-1.54,2.61-3.13,5.4a23,23,0,0,0-2.32,5.54A11.52,11.52,0,0,0,8,73.92a7.69,7.69,0,0,0,3.32,4.58A8.77,8.77,0,0,0,16.65,80Z"/><path class="cls-1" d="M120.34,18.66a15.74,15.74,0,0,1-.29,2.94,10.23,10.23,0,0,1-.92,2.7,4.54,4.54,0,0,1-1.54,1.78,2.52,2.52,0,0,1-2.17.19q-2.4-.87-5.54-2t-7.23-2.12a83.41,83.41,0,0,0-9.2-1.69,88.84,88.84,0,0,0-11.56-.68c-1.48,0-2.22.61-2.22,1.84V46.22a10.57,10.57,0,0,1,6.84-2.41,20.83,20.83,0,0,1,5.26.72c1.83.48,3.77,1.08,5.83,1.78a11,11,0,0,0,3.08.49,13.39,13.39,0,0,0,6.17-1.59,31.73,31.73,0,0,0,6.26-4.39c.32-.32.58-.35.77-.1s.13.36-.19.68a57.75,57.75,0,0,1-6.51,5.11A12.84,12.84,0,0,1,100,48.43a21.06,21.06,0,0,1-4-.38,26.48,26.48,0,0,0-5.21-.58,14.4,14.4,0,0,0-5.2.82,9.31,9.31,0,0,0-3.42,2.17,8.06,8.06,0,0,0-1.88,3.08,11.41,11.41,0,0,0-.58,3.57V82.26q0,2.31,2.22,2.31h1.54a99.11,99.11,0,0,0,10.94-.92q5-.72,8.91-1.68c2.63-.65,5-1.32,7-2s3.74-1.31,5.15-1.83a2.65,2.65,0,0,1,2.27,0,3.89,3.89,0,0,1,1.49,1.69,10.32,10.32,0,0,1,.87,2.6,14.91,14.91,0,0,1,.29,2.89v.38H72.73V18.27h47.61Z"/><path class="cls-1" d="M139.48,44.88a7.77,7.77,0,0,1,3.19.64,3.68,3.68,0,0,1,2,2.25,3.77,3.77,0,0,1,.17,2.37,6.77,6.77,0,0,1-2.54,3.94,7.58,7.58,0,0,1-1.91,1.1,10.36,10.36,0,0,0-5.27,4.51,16.34,16.34,0,0,0-2,6.13,13.29,13.29,0,0,0,1.16,6.08,19.2,19.2,0,0,0,4.45,6.42,25.86,25.86,0,0,0,18.57,7.17,27.79,27.79,0,0,0,12-2.48,23.38,23.38,0,0,0,8.44-6.6,22.82,22.82,0,0,0,4.4-9.37,24.42,24.42,0,0,0-.12-10.82q-2.31-9.49-9.54-14.06t-18-5.15A76.42,76.42,0,0,1,141,35.22a29.69,29.69,0,0,1-8.74-3.42,12.2,12.2,0,0,1-4.68-4.91,14.08,14.08,0,0,1-1.39-6.31,10.34,10.34,0,0,1,2.37-6.42,20.86,20.86,0,0,1,6.59-5.38,42.16,42.16,0,0,1,10-3.76,51.68,51.68,0,0,1,12.62-1.45q12.14,0,20.24,4.57a18.28,18.28,0,0,1,9.61,13.25,6.9,6.9,0,0,1-.35,3.82,3.7,3.7,0,0,1-2.89,2.08,3.66,3.66,0,0,1-3.53-.92c-1-.93-1.37-2.51-1.22-4.75a12.64,12.64,0,0,0-1.39-6.88,15,15,0,0,0-4.57-5.21,22.94,22.94,0,0,0-7-3.35A31.08,31.08,0,0,0,157.77,5a37.73,37.73,0,0,0-8.51,1,26.9,26.9,0,0,0-7.64,3,18.67,18.67,0,0,0-5.55,4.92,11,11,0,0,0-2.14,6.71,16.93,16.93,0,0,0,1,6,10,10,0,0,0,3.3,4.4,18.17,18.17,0,0,0,6.31,2.89,44.82,44.82,0,0,0,10,1.33,112.31,112.31,0,0,1,13.94,1.45A45.71,45.71,0,0,1,179.81,40a23.34,23.34,0,0,1,8.1,6,19.42,19.42,0,0,1,4.22,9.37,24.68,24.68,0,0,1-.93,13.14,24.15,24.15,0,0,1-7,10,33.41,33.41,0,0,1-11.81,6.37,49.7,49.7,0,0,1-15,2.2,43,43,0,0,1-12.84-1.74A33.06,33.06,0,0,1,135,80.75a22.87,22.87,0,0,1-6.13-6.31,22.2,22.2,0,0,1-3.07-7.11,20.55,20.55,0,0,1,1.33-13.66,15.43,15.43,0,0,1,8.5-8.1A10.26,10.26,0,0,1,139.48,44.88Z"/><path class="cls-1" d="M246.17,18.37q6.17,0,9.11,2.07t2.65,6.7q-.3,4.34-2.46,6.45A21.46,21.46,0,0,1,251.08,37a41.37,41.37,0,0,0-4.57,2.79,14.88,14.88,0,0,0-3.09,2.89,11.51,11.51,0,0,0-1.83,3.42,19,19,0,0,0-.82,4.39c0,.51-.22.77-.67.77s-.48-.29-.48-.87a25.48,25.48,0,0,1,.43-3.37,14.12,14.12,0,0,1,1.25-3.57,17.22,17.22,0,0,1,2.7-3.8,29,29,0,0,1,4.77-4.1,6.62,6.62,0,0,0,2.75-4.09,9,9,0,0,0-.29-5.21,9.3,9.3,0,0,0-3.57-4.43,11.82,11.82,0,0,0-7-1.88H232.2c-1.87,0-2.8,1-2.8,2.89V85.72h-6.16V22.8c0-1.92-.93-2.89-2.8-2.89H212A11.64,11.64,0,0,0,205,21.79a9.71,9.71,0,0,0-3.56,4.43,8.75,8.75,0,0,0-.34,5.21,6.58,6.58,0,0,0,2.75,4.09,27.27,27.27,0,0,1,4.86,4.1,17.22,17.22,0,0,1,2.7,3.8A12.89,12.89,0,0,1,212.64,47a31.32,31.32,0,0,1,.38,3.37q.19.87-.48.87c-.32,0-.55-.26-.67-.77a20.87,20.87,0,0,0-.77-4.39,10.56,10.56,0,0,0-1.79-3.42,14.81,14.81,0,0,0-3.08-2.89A37.57,37.57,0,0,0,201.56,37a20.21,20.21,0,0,1-4.34-3.38q-2.11-2.12-2.51-6.45-.28-4.63,2.65-6.7t9.21-2.07Z"/><path class="cls-1" d="M262.89,21.26a9,9,0,0,1,1-3.47,4.66,4.66,0,0,1,2-1.88c.83-.41,1.92-.88,3.27-1.4.9-.32,1.74-.62,2.51-.91a6.92,6.92,0,0,0,1.93-1.06,4.35,4.35,0,0,0,1.2-1.59,6.15,6.15,0,0,0,.43-2.51c0-.51.13-.77.39-.77s.38.26.38.77a7.19,7.19,0,0,1-.91,4.2,15,15,0,0,1-2.84,2.65,5.93,5.93,0,0,0-2.85,4.62q-.24,2.89-.24,8.38V85.72h-6.45V27.52A62.15,62.15,0,0,1,262.89,21.26Z"/><path class="cls-1" d="M284,27.91a37.93,37.93,0,0,1,7.13-5.69,34.3,34.3,0,0,1,8.34-3.71,32.53,32.53,0,0,1,9.15-1.3,32,32,0,0,1,8.67,1.21,35.2,35.2,0,0,1,8.67,3.8,18.82,18.82,0,0,1,6.51,6.12,7.87,7.87,0,0,1,.72,7.28,8.85,8.85,0,0,1-3.9,4.77,11.21,11.21,0,0,1-5.54,1.49,10.8,10.8,0,0,1-3.47-.58,19.86,19.86,0,0,0-6.65-1.54,11.36,11.36,0,0,0-3.66.58l-4.14,1.35c-.65.26-1,.26-1.06,0s.09-.58.67-.77q2.79-1.06,5.25-1.88a15.22,15.22,0,0,1,4.87-.82,9.65,9.65,0,0,1,2.79.38,9.93,9.93,0,0,0,2.8.49,6.05,6.05,0,0,0,4.24-1.59q1.72-1.59,1.73-5a9.66,9.66,0,0,0-1.69-5.63,14.22,14.22,0,0,0-4.48-4.15,22.64,22.64,0,0,0-6.36-2.55,30.68,30.68,0,0,0-7.32-.87,33.17,33.17,0,0,0-4,.24,23.73,23.73,0,0,0-3.9.82A25.06,25.06,0,0,0,289.58,26a29.2,29.2,0,0,0-6.65,9.2,35.13,35.13,0,0,0-3,11.61,35.51,35.51,0,0,0,1.16,12.67,35,35,0,0,0,4.38,10.07,36.08,36.08,0,0,0,6.8,7.91,29.91,29.91,0,0,0,8.43,5.15,24.84,24.84,0,0,0,9.3,1.83,26.62,26.62,0,0,0,9.49-1.88,21.13,21.13,0,0,0,8.05-5.15,20.58,20.58,0,0,1,1.78-1.64,1.09,1.09,0,0,1,1.49,0,1.19,1.19,0,0,1,.24,1.64,7.69,7.69,0,0,1-1.59,1.93,25.11,25.11,0,0,1-9,5.49,32.13,32.13,0,0,1-10.84,1.83,37,37,0,0,1-18.59-5,32.63,32.63,0,0,1-10.22-8.82A34.24,34.24,0,0,1,275,61.2a33.79,33.79,0,0,1,3.47-26A35.25,35.25,0,0,1,284,27.91Z"/><path class="cls-1" d="M345,57.78l4-2.6q2.61-1.63,7.76-5T371,41.11a31.9,31.9,0,0,0,7.13-5.78,17.19,17.19,0,0,0,3.28-5.2,8.82,8.82,0,0,0,.58-4.29,7.49,7.49,0,0,0-1.06-3,3.83,3.83,0,0,0-2-1.64,7.93,7.93,0,0,0-3-.57,6.5,6.5,0,0,0-3.18.86,4.57,4.57,0,0,0-2.12,2.89c-.26.71-.52,1-.77,1s-.2-.48,0-1.26a7.67,7.67,0,0,1,3.61-5,11.27,11.27,0,0,1,5.73-1.59,9.57,9.57,0,0,1,3.81.77,6.8,6.8,0,0,1,2.84,2.22,8.49,8.49,0,0,1,1.45,3.56,10.49,10.49,0,0,1-.19,4.44,14.44,14.44,0,0,1-2.27,4.72,16.88,16.88,0,0,1-4.86,4.43l-2.85,1.83L373.22,42l-4.1,2.65c-1.35.86-2.53,1.62-3.56,2.26a2.31,2.31,0,0,0-1,1.74,2.74,2.74,0,0,0,.62,2.12l31.13,35h-9.16L358.91,53.93A2.68,2.68,0,0,0,357,52.87a2.44,2.44,0,0,0-1.44.48l-7.23,4.53a7.44,7.44,0,0,0-2.6,2.5,7.39,7.39,0,0,0-.68,3.47V85.72h-6.55V18.27H345Z"/><path class="cls-1" d="M448.62,18.66a15.74,15.74,0,0,1-.29,2.94,9.88,9.88,0,0,1-.92,2.7,4.47,4.47,0,0,1-1.54,1.78,2.5,2.5,0,0,1-2.16.19q-2.41-.87-5.55-2a75.18,75.18,0,0,0-7.22-2.12,83.85,83.85,0,0,0-9.2-1.69,89,89,0,0,0-11.57-.68c-1.48,0-2.21.61-2.21,1.84V46.22a10.57,10.57,0,0,1,6.84-2.41,20.69,20.69,0,0,1,5.25.72c1.83.48,3.77,1.08,5.83,1.78a11,11,0,0,0,3.08.49,13.36,13.36,0,0,0,6.17-1.59,31.73,31.73,0,0,0,6.26-4.39c.32-.32.58-.35.77-.1s.13.36-.19.68a57.73,57.73,0,0,1-6.5,5.11,12.87,12.87,0,0,1-7.18,1.92,21.17,21.17,0,0,1-4.05-.38,26.46,26.46,0,0,0-5.2-.58,14.46,14.46,0,0,0-5.21.82,9.31,9.31,0,0,0-3.42,2.17,8.19,8.19,0,0,0-1.88,3.08,11.4,11.4,0,0,0-.57,3.57V82.26c0,1.54.73,2.31,2.21,2.31h1.54a98.9,98.9,0,0,0,10.94-.92q5-.72,8.91-1.68c2.64-.65,5-1.32,7-2s3.74-1.31,5.16-1.83a2.63,2.63,0,0,1,2.26,0,3.83,3.83,0,0,1,1.49,1.69,9.93,9.93,0,0,1,.87,2.6,14.91,14.91,0,0,1,.29,2.89v.38H401V18.27h47.6Z"/><path class="cls-1" d="M489.76,18.27a13.76,13.76,0,0,1,7,1.64,11.64,11.64,0,0,1,4.29,4.24,12.58,12.58,0,0,1,1.63,5.78,15.64,15.64,0,0,1-1,6.27,18.2,18.2,0,0,1-3.37,5.54,23.89,23.89,0,0,1-4.77,4.09,29.45,29.45,0,0,1-5.68,2.89,56.79,56.79,0,0,1-6,1.93,9.48,9.48,0,0,1,3.38.58A6.16,6.16,0,0,1,488,53.54a19.34,19.34,0,0,1,2.36,5A60.43,60.43,0,0,1,492.46,67a49,49,0,0,0,3,10.79,23,23,0,0,0,4.48,7,20.5,20.5,0,0,0,6.17,4.38,49.5,49.5,0,0,0,8.14,2.89,10.41,10.41,0,0,1,1.73.63c.45.23.61.53.49.92s-1,.38-2.61,0a69,69,0,0,1-11-3.57,26.59,26.59,0,0,1-7.32-4.62A20.79,20.79,0,0,1,490.78,79a53.33,53.33,0,0,1-3.23-9q-2.7-9.54-5.69-13.54c-2-2.67-4.2-4-6.65-4a7.8,7.8,0,0,0-2.5.39,28.86,28.86,0,0,0-9.3,4.33c-2.15,1.67-3.23,3.54-3.23,5.59V85.72h-6.84V18.27Zm-26,36.28A49.06,49.06,0,0,1,470,52.1c2.35-.78,4.85-1.58,7.52-2.41A70.64,70.64,0,0,0,485,46.84a29.65,29.65,0,0,0,6.31-3.75A11.49,11.49,0,0,0,495.16,38a21.48,21.48,0,0,0,1.21-6.56,13,13,0,0,0-1.11-5.68,9.66,9.66,0,0,0-3.47-4.05A10.18,10.18,0,0,0,486,20.2H463.94c-1.67,0-2.71.27-3.13.82a5.94,5.94,0,0,0-.63,3.32V57.49A8.26,8.26,0,0,1,463.8,54.55Z"/><path class="cls-1" d="M519.35,51.71a6.6,6.6,0,0,1,2.65.53,3.06,3.06,0,0,1,1.68,1.88,3.17,3.17,0,0,1,.15,2,5.77,5.77,0,0,1-.77,1.83,6,6,0,0,1-1.35,1.45,6.61,6.61,0,0,1-1.59.92A8.61,8.61,0,0,0,515.73,64a13.49,13.49,0,0,0-1.68,5.11,11,11,0,0,0,1,5.06,16,16,0,0,0,3.71,5.35,21.51,21.51,0,0,0,15.47,6,23,23,0,0,0,10-2.07,19.46,19.46,0,0,0,7-5.49,19,19,0,0,0,3.66-7.81,20.47,20.47,0,0,0-.09-9q-1.93-7.89-7.95-11.7t-15-4.29a63.92,63.92,0,0,1-11.27-1.5,24.66,24.66,0,0,1-7.28-2.84,10.24,10.24,0,0,1-3.9-4.09,11.84,11.84,0,0,1-1.16-5.26,8.59,8.59,0,0,1,2-5.34,17.25,17.25,0,0,1,5.49-4.48,35.23,35.23,0,0,1,8.34-3.14,43.37,43.37,0,0,1,10.5-1.2q10.13,0,16.86,3.81a15.15,15.15,0,0,1,8,11,5.7,5.7,0,0,1-.29,3.18,3.53,3.53,0,0,1-5.35,1c-.8-.77-1.14-2.09-1-3.95a10.62,10.62,0,0,0-1.15-5.73,12.62,12.62,0,0,0-3.81-4.34,19.08,19.08,0,0,0-5.88-2.79,25.69,25.69,0,0,0-7.37-1,30.84,30.84,0,0,0-7.08.82,22.1,22.1,0,0,0-6.36,2.5,15.37,15.37,0,0,0-4.63,4.1,9.09,9.09,0,0,0-1.78,5.58,13.92,13.92,0,0,0,.82,5,8.32,8.32,0,0,0,2.75,3.66,15.1,15.1,0,0,0,5.25,2.41,37.45,37.45,0,0,0,8.33,1.11,94.27,94.27,0,0,1,11.61,1.2,38.07,38.07,0,0,1,9.45,2.79,19.38,19.38,0,0,1,6.74,5,16.14,16.14,0,0,1,3.52,7.8,20.56,20.56,0,0,1-.77,10.94,20.18,20.18,0,0,1-5.88,8.33,27.63,27.63,0,0,1-9.83,5.3,41.27,41.27,0,0,1-12.52,1.83,36,36,0,0,1-10.7-1.44,27.41,27.41,0,0,1-7.85-3.76,19.09,19.09,0,0,1-5.11-5.25A18.72,18.72,0,0,1,508,70.4,17.16,17.16,0,0,1,509.08,59a12.8,12.8,0,0,1,7.09-6.74A8.37,8.37,0,0,1,519.35,51.71Z"/></g></svg>