<svg xmlns="http://www.w3.org/2000/svg" viewBox="0 0 206.5 206.5"><defs><style>.cls-1{fill:#fff;}.cls-1,.cls-2{stroke:#fff;}.cls-1,.cls-2,.cls-3{stroke-miterlimit:10;stroke-width:0.5px;}.cls-3{stroke:#000;}</style></defs><title>logoMin__white33</title><g id="Layer_1" data-name="Layer 1"><circle class="cls-1" cx="103.25" cy="103.25" r="103"/><path class="cls-2" d="M20.83,103.31a77.33,77.33,0,0,0,7.37-15c.71-2.12,1.41-4.17,2.12-6.17a29.6,29.6,0,0,1,2.46-5.3A12,12,0,0,1,36.2,73.1a8.62,8.62,0,0,1,5-1.39,12.24,12.24,0,0,1,8.38,2.79Q52.77,77.29,54.7,84c.19.64.61,1.94,1.25,3.9s1.4,4.32,2.27,7.08S60,100.71,61.06,104s2.06,6.58,3.08,9.92q3.77,11.76,8.29,26H65.78c-.9-2.83-1.89-5.65-3-8.48A45.87,45.87,0,0,0,59,123.79a20.69,20.69,0,0,0-4.87-5.54,10.05,10.05,0,0,0-6.31-2.12,12.16,12.16,0,0,0-5.25,1.11,15.25,15.25,0,0,0-4.53,3.37,35.64,35.64,0,0,0-4.29,5.59q-2.11,3.33-4.53,7.76a11.9,11.9,0,0,1-5.11,5,14.29,14.29,0,0,1-6.45,1.59,11,11,0,0,1-6.65-2,11.32,11.32,0,0,1-3.18-3.66,10.1,10.1,0,0,1-1.16-4.29,13.55,13.55,0,0,1,.63-4.58,18.56,18.56,0,0,1,2.07-4.43Q15.58,112,20.83,103.31Zm.24,30.93a10.44,10.44,0,0,0,5-1.3,11.16,11.16,0,0,0,4.29-4.38,38,38,0,0,1,7.9-10.12A14.47,14.47,0,0,1,48,114.78a18.39,18.39,0,0,1,6.26,1,12,12,0,0,1,4.43,2.65q-2.59-8.39-4.72-15.22-1-2.89-1.88-5.74c-.61-1.89-1.16-3.63-1.64-5.2s-.88-2.91-1.2-4a15.68,15.68,0,0,0-.68-2,31.16,31.16,0,0,0-4.14-8.72,6.06,6.06,0,0,0-4.82-2.75,6,6,0,0,0-5.06,2.55A27.31,27.31,0,0,0,31,85.2a74.17,74.17,0,0,1-2.51,7.08c-.9,2.15-1.88,4.26-2.94,6.31s-2.2,4.16-3.42,6.31-2.57,4.48-4.05,7c-1,1.73-2.07,3.53-3.13,5.4a23,23,0,0,0-2.31,5.54,11.38,11.38,0,0,0-.19,5.3,7.67,7.67,0,0,0,3.32,4.57A8.75,8.75,0,0,0,21.07,134.24Z"/><path class="cls-2" d="M124.75,72.86a14.8,14.8,0,0,1-.29,2.94,9.65,9.65,0,0,1-.91,2.7A4.48,4.48,0,0,1,122,80.28a2.52,2.52,0,0,1-2.17.2l-5.54-2c-2.09-.74-4.5-1.44-7.23-2.12a86.28,86.28,0,0,0-9.2-1.69A90.88,90.88,0,0,0,86.31,74q-2.22,0-2.22,1.83v24.57A10.62,10.62,0,0,1,90.93,98a20.28,20.28,0,0,1,5.25.73c1.83.48,3.78,1.07,5.83,1.78a11,11,0,0,0,3.09.48,13.32,13.32,0,0,0,6.16-1.59A31.42,31.42,0,0,0,117.53,95c.32-.32.57-.36.77-.1s.13.35-.2.67a55.74,55.74,0,0,1-6.5,5.11,12.77,12.77,0,0,1-7.18,1.93,20.46,20.46,0,0,1-4-.39,27.16,27.16,0,0,0-5.2-.58,14.62,14.62,0,0,0-5.2.82,9.27,9.27,0,0,0-3.42,2.17,8,8,0,0,0-1.88,3.09,11,11,0,0,0-.58,3.56v25.15q0,2.31,2.22,2.31h1.54a98.84,98.84,0,0,0,10.93-.91c3.31-.48,6.28-1.05,8.92-1.69s5-1.32,7-2l5.16-1.83a2.59,2.59,0,0,1,2.26.05,3.88,3.88,0,0,1,1.5,1.68,10.45,10.45,0,0,1,.86,2.6,14.24,14.24,0,0,1,.29,2.89v.39H77.15V72.48h47.6Z"/><path class="cls-2" d="M143.9,99.08a7.85,7.85,0,0,1,3.18.64,3.71,3.71,0,0,1,2,2.26,3.85,3.85,0,0,1,.17,2.37,6.78,6.78,0,0,1-2.55,3.93,7.24,7.24,0,0,1-1.9,1.1,10.38,10.38,0,0,0-5.27,4.52,16.11,16.11,0,0,0-2,6.13,13.23,13.23,0,0,0,1.15,6.07,19,19,0,0,0,4.46,6.42,26.16,26.16,0,0,0,7.69,5.1,26.46,26.46,0,0,0,10.88,2.08,27.57,27.57,0,0,0,12-2.49,23.5,23.5,0,0,0,8.45-6.59,23,23,0,0,0,4.4-9.38,24.42,24.42,0,0,0-.12-10.82q-2.31-9.48-9.55-14t-18-5.15a76.45,76.45,0,0,1-13.54-1.8A29.47,29.47,0,0,1,136.67,86,12.38,12.38,0,0,1,132,81.09a14.21,14.21,0,0,1-1.39-6.3A10.34,10.34,0,0,1,133,68.36,21,21,0,0,1,139.56,63a42.43,42.43,0,0,1,10-3.76,52.16,52.16,0,0,1,12.61-1.44q12.15,0,20.25,4.57A18.21,18.21,0,0,1,192,75.6a6.83,6.83,0,0,1-.34,3.82,3.72,3.72,0,0,1-2.9,2.08,3.63,3.63,0,0,1-3.52-.93c-1-.92-1.37-2.51-1.22-4.74a12.86,12.86,0,0,0-1.39-6.89,15,15,0,0,0-4.57-5.2A23,23,0,0,0,171,60.38a31.09,31.09,0,0,0-8.85-1.21,37.09,37.09,0,0,0-8.5,1,26.61,26.61,0,0,0-7.64,3,18.43,18.43,0,0,0-5.55,4.92,10.93,10.93,0,0,0-2.14,6.71,16.74,16.74,0,0,0,1,6,9.83,9.83,0,0,0,3.3,4.39,18.12,18.12,0,0,0,6.3,2.9,45.5,45.5,0,0,0,10,1.33,114.13,114.13,0,0,1,13.94,1.44,45,45,0,0,1,11.34,3.36,23.21,23.21,0,0,1,8.1,6,19.48,19.48,0,0,1,4.23,9.37,24.64,24.64,0,0,1-.93,13.13,24.21,24.21,0,0,1-7.06,10,33.19,33.19,0,0,1-11.8,6.36,49.44,49.44,0,0,1-15,2.2,43.32,43.32,0,0,1-12.84-1.73,32.68,32.68,0,0,1-9.43-4.52,23.17,23.17,0,0,1-6.14-6.3,22.44,22.44,0,0,1-3.06-7.12,20.52,20.52,0,0,1,1.33-13.65,15.4,15.4,0,0,1,8.5-8.1A10.26,10.26,0,0,1,143.9,99.08Z"/><path class="cls-3" d="M25.83,99.31a77.33,77.33,0,0,0,7.37-15c.71-2.12,1.41-4.17,2.12-6.17a29.6,29.6,0,0,1,2.46-5.3A12,12,0,0,1,41.2,69.1a8.62,8.62,0,0,1,5-1.39,12.24,12.24,0,0,1,8.38,2.79Q57.77,73.29,59.7,80c.19.64.61,1.94,1.25,3.9s1.4,4.32,2.27,7.08S65,96.71,66.06,100s2.06,6.58,3.08,9.92q3.77,11.76,8.29,26H70.78c-.9-2.83-1.89-5.65-3-8.48A45.87,45.87,0,0,0,64,119.79a20.69,20.69,0,0,0-4.87-5.54,10.05,10.05,0,0,0-6.31-2.12,12.16,12.16,0,0,0-5.25,1.11,15.25,15.25,0,0,0-4.53,3.37,35.64,35.64,0,0,0-4.29,5.59q-2.11,3.33-4.53,7.76a11.9,11.9,0,0,1-5.11,5,14.29,14.29,0,0,1-6.45,1.59,11,11,0,0,1-6.65-2,11.32,11.32,0,0,1-3.18-3.66,10.1,10.1,0,0,1-1.16-4.29,13.55,13.55,0,0,1,.63-4.58,18.56,18.56,0,0,1,2.07-4.43Q20.58,108,25.83,99.31Zm.24,30.93a10.47,10.47,0,0,0,5-1.3,11.16,11.16,0,0,0,4.29-4.38,38,38,0,0,1,7.9-10.12A14.47,14.47,0,0,1,53,110.78a18.39,18.39,0,0,1,6.26,1,12,12,0,0,1,4.43,2.65q-2.59-8.39-4.72-15.22-1-2.89-1.88-5.74c-.61-1.89-1.16-3.63-1.64-5.2s-.88-2.91-1.2-4a15.68,15.68,0,0,0-.68-2,31.16,31.16,0,0,0-4.14-8.72,6.06,6.06,0,0,0-4.82-2.75,6,6,0,0,0-5.06,2.55A27.31,27.31,0,0,0,36,81.2a74.17,74.17,0,0,1-2.51,7.08c-.9,2.15-1.88,4.26-2.94,6.31s-2.2,4.16-3.42,6.31-2.57,4.48-4.05,7c-1,1.73-2.07,3.53-3.13,5.4a23,23,0,0,0-2.31,5.54,11.38,11.38,0,0,0-.19,5.3,7.67,7.67,0,0,0,3.32,4.57A8.75,8.75,0,0,0,26.07,130.24Z"/><path class="cls-3" d="M129.75,68.86a14.8,14.8,0,0,1-.29,2.94,9.65,9.65,0,0,1-.91,2.7A4.48,4.48,0,0,1,127,76.28a2.52,2.52,0,0,1-2.17.2l-5.54-2c-2.09-.74-4.5-1.44-7.23-2.12a86.28,86.28,0,0,0-9.2-1.69A90.88,90.88,0,0,0,91.31,70q-2.22,0-2.22,1.83V96.42A10.62,10.62,0,0,1,95.93,94a20.28,20.28,0,0,1,5.25.73c1.83.48,3.78,1.07,5.83,1.78a11,11,0,0,0,3.09.48,13.32,13.32,0,0,0,6.16-1.59A31.42,31.42,0,0,0,122.53,91c.32-.32.57-.36.77-.1s.12.35-.2.67a55.74,55.74,0,0,1-6.5,5.11,12.77,12.77,0,0,1-7.18,1.93,20.46,20.46,0,0,1-4-.39,27.16,27.16,0,0,0-5.2-.58,14.62,14.62,0,0,0-5.2.82,9.27,9.27,0,0,0-3.42,2.17,8,8,0,0,0-1.88,3.09,11,11,0,0,0-.58,3.56v25.15q0,2.31,2.22,2.31h1.54a98.84,98.84,0,0,0,10.93-.91c3.31-.48,6.28-1.05,8.92-1.69s5-1.32,7-2l5.16-1.83a2.59,2.59,0,0,1,2.26.05,3.88,3.88,0,0,1,1.5,1.68,10.45,10.45,0,0,1,.86,2.6,14.24,14.24,0,0,1,.29,2.89v.39H82.15V68.48h47.6Z"/><path class="cls-3" d="M148.9,95.08a7.85,7.85,0,0,1,3.18.64,3.71,3.71,0,0,1,2,2.26,3.85,3.85,0,0,1,.17,2.37,6.78,6.78,0,0,1-2.55,3.93,7.24,7.24,0,0,1-1.9,1.1,10.38,10.38,0,0,0-5.27,4.52,16.11,16.11,0,0,0-2,6.13,13.23,13.23,0,0,0,1.15,6.07,19,19,0,0,0,4.46,6.42,26.16,26.16,0,0,0,7.69,5.1,26.46,26.46,0,0,0,10.88,2.08,27.57,27.57,0,0,0,12-2.49,23.5,23.5,0,0,0,8.45-6.59,23,23,0,0,0,4.4-9.38,24.42,24.42,0,0,0-.12-10.82q-2.31-9.48-9.55-14t-18-5.15a76.45,76.45,0,0,1-13.54-1.8A29.47,29.47,0,0,1,141.67,82,12.38,12.38,0,0,1,137,77.09a14.21,14.21,0,0,1-1.39-6.3A10.39,10.39,0,0,1,138,64.36a21.16,21.16,0,0,1,6.6-5.38,42.43,42.43,0,0,1,10-3.76,52.16,52.16,0,0,1,12.61-1.44q12.15,0,20.25,4.57A18.21,18.21,0,0,1,197,71.6a6.83,6.83,0,0,1-.34,3.82,3.72,3.72,0,0,1-2.9,2.08,3.65,3.65,0,0,1-3.53-.93c-1-.92-1.36-2.51-1.21-4.74a12.86,12.86,0,0,0-1.39-6.89,15,15,0,0,0-4.57-5.2A23,23,0,0,0,176,56.38a31.09,31.09,0,0,0-8.85-1.21,37.09,37.09,0,0,0-8.5,1,26.61,26.61,0,0,0-7.64,3,18.43,18.43,0,0,0-5.55,4.92,10.93,10.93,0,0,0-2.14,6.71,16.74,16.74,0,0,0,1,6,9.83,9.83,0,0,0,3.3,4.39,18.12,18.12,0,0,0,6.3,2.9,45.5,45.5,0,0,0,10,1.33,114.13,114.13,0,0,1,13.94,1.44,45,45,0,0,1,11.34,3.36,23.21,23.21,0,0,1,8.1,6,19.48,19.48,0,0,1,4.23,9.37,24.74,24.74,0,0,1-.93,13.13,24.21,24.21,0,0,1-7.06,10,33.19,33.19,0,0,1-11.8,6.36,49.44,49.44,0,0,1-15,2.2,43.32,43.32,0,0,1-12.84-1.73,32.68,32.68,0,0,1-9.43-4.52,23.17,23.17,0,0,1-6.14-6.3,22.44,22.44,0,0,1-3.06-7.12,20.52,20.52,0,0,1,1.33-13.65,15.4,15.4,0,0,1,8.5-8.1A10.26,10.26,0,0,1,148.9,95.08Z"/></g></svg>