<svg id="Layer_1" data-name="Layer 1" xmlns="http://www.w3.org/2000/svg" viewBox="0 0 989.06 80"><defs><style>.cls-1,.cls-2{fill:#fff;stroke-miterlimit:10;stroke-width:2px;}.cls-1{stroke:#000;}.cls-2{stroke:#fff;}</style></defs><title>topalfincreo</title><path class="cls-1" d="M988.12,81.77V43l-26-40-26,40-26-40-26,40-26-40-26,40-26-40-26,40-26-40-26,40-26-40-26,40-26-40-26,40-26-40-26,40-26-40-26,40-26-40-26,40-26-40-26,40-26-40-26,40-26-40-26,40-26-40-26,40-26-40-26,40-26-40-26,40-26-40-26,40-26-40-26,40-26-40L.94,41.77v40"/><rect class="cls-2" x="3.05" y="46.38" width="982.96" height="36.64"/></svg>