<svg id="Layer_1" data-name="Layer 1" xmlns="http://www.w3.org/2000/svg" viewBox="0 0 989.19 82.06"><defs><style>.cls-1,.cls-2{fill:#fff;stroke-miterlimit:10;stroke-width:2px;}.cls-1{stroke:#000;}.cls-2{stroke:#fff;}</style></defs><title>bottom</title><path class="cls-1" d="M1,0V38.79l26,40,26-40,26,40,26-40,26,40,26-40,26,40,26-40,26,40,26-40,26,40,26-40,26,40,26-40,26,40,26-40,26,40,26-40,26,40,26-40,26,40,26-40,26,40,26-40,26,40,26-40,26,40,26-40,26,40,26-40,26,40,26-40,26,40,26-40,26,40,26-40,26,40L988.19,40V0"/><rect class="cls-2" x="3.12" y="-1.24" width="982.96" height="36.64" transform="translate(989.19 34.15) rotate(-180)"/></svg>